<svg xmlns="http://www.w3.org/2000/svg" viewBox="0 0 500 500"><g id="freepik--background-complete--inject-31"><rect y="382.4" width="500" height="0.25" style="fill:#ebebeb"></rect><rect x="416.78" y="398.49" width="33.12" height="0.25" style="fill:#ebebeb"></rect><rect x="322.53" y="401.21" width="8.69" height="0.25" style="fill:#ebebeb"></rect><rect x="396.59" y="389.21" width="19.19" height="0.25" style="fill:#ebebeb"></rect><rect x="52.46" y="390.89" width="43.19" height="0.25" style="fill:#ebebeb"></rect><rect x="104.56" y="390.89" width="6.33" height="0.25" style="fill:#ebebeb"></rect><rect x="131.47" y="395.11" width="93.68" height="0.25" style="fill:#ebebeb"></rect><path d="M237,337.8H43.91a5.71,5.71,0,0,1-5.7-5.71V60.66A5.71,5.71,0,0,1,43.91,55H237a5.71,5.71,0,0,1,5.71,5.71V332.09A5.71,5.71,0,0,1,237,337.8ZM43.91,55.2a5.46,5.46,0,0,0-5.45,5.46V332.09a5.46,5.46,0,0,0,5.45,5.46H237a5.47,5.47,0,0,0,5.46-5.46V60.66A5.47,5.47,0,0,0,237,55.2Z" style="fill:#ebebeb"></path><path d="M453.31,337.8H260.21a5.72,5.72,0,0,1-5.71-5.71V60.66A5.72,5.72,0,0,1,260.21,55h193.1A5.71,5.71,0,0,1,459,60.66V332.09A5.71,5.71,0,0,1,453.31,337.8ZM260.21,55.2a5.47,5.47,0,0,0-5.46,5.46V332.09a5.47,5.47,0,0,0,5.46,5.46h193.1a5.47,5.47,0,0,0,5.46-5.46V60.66a5.47,5.47,0,0,0-5.46-5.46Z" style="fill:#ebebeb"></path><rect x="89" y="75.4" width="322" height="225.91" style="fill:#fafafa"></rect><polygon points="265.33 301.31 225.1 301.31 287.12 75.4 327.34 75.4 265.33 301.31" style="fill:#fff"></polygon><polygon points="287.89 301.31 274.44 301.31 336.45 75.4 349.9 75.4 287.89 301.31" style="fill:#fff"></polygon><polygon points="109.1 301.31 95.65 301.31 157.66 75.4 171.11 75.4 109.1 301.31" style="fill:#fff"></polygon><path d="M85.11,70.58V306.13H414.89V70.58ZM407.89,299.13H92.11V77.58H407.89Z" style="fill:#ebebeb"></path><rect x="238.83" y="74.65" width="22.33" height="228.67" style="fill:#ebebeb"></rect><rect x="89" y="148.98" width="322" height="3.67" style="fill:#ebebeb"></rect><rect x="89" y="224.06" width="322" height="3.67" style="fill:#ebebeb"></rect><rect x="76.83" y="186.52" width="227.42" height="3.67" transform="translate(378.89 -2.18) rotate(90)" style="fill:#ebebeb"></rect><rect x="26.69" y="186.52" width="227.42" height="3.67" transform="translate(328.76 47.95) rotate(90)" style="fill:#ebebeb"></rect><rect x="245.89" y="186.52" width="227.42" height="3.67" transform="translate(547.95 -171.24) rotate(90)" style="fill:#ebebeb"></rect><rect x="195.75" y="186.52" width="227.42" height="3.67" transform="translate(497.82 -121.11) rotate(90)" style="fill:#ebebeb"></rect><rect x="254.75" y="74.65" width="0.81" height="228.67" style="fill:#e0e0e0"></rect><circle cx="83.66" cy="351.2" r="31.2" style="fill:#f5f5f5"></circle><circle cx="131.47" cy="354.54" r="27.86" transform="translate(-212.19 196.81) rotate(-45)" style="fill:#ebebeb"></circle><circle cx="395.08" cy="352.46" r="29.94" transform="translate(-71.18 101.63) rotate(-13.46)" style="fill:#f5f5f5"></circle></g><g id="freepik--Shadow--inject-31"><ellipse id="freepik--path--inject-31" cx="250" cy="416.24" rx="193.89" ry="11.32" style="fill:#f5f5f5"></ellipse></g><g id="freepik--Character--inject-31"><ellipse cx="293.35" cy="376.66" rx="53.06" ry="39.25" style="fill:#407BFF"></ellipse><ellipse cx="293.35" cy="376.66" rx="53.06" ry="39.25" style="fill:#fff;opacity:0.30000000000000004"></ellipse><polygon points="127.98 206.72 131.56 201.02 153.58 213.54 147.31 222.99 127.98 206.72" style="fill:#7f3e3b"></polygon><path d="M315.56,310.47s-57.43-36.36-81.82-53.54c-26.76-14.25-80.15-43.39-80.15-43.39l-6.32,9.5s34.51,33.49,73.86,51c35.52,34.06,68,64.29,83.44,63.39C315.56,329.67,315.56,310.47,315.56,310.47Z" style="fill:#263238"></path><path d="M266.56,315.69a179.37,179.37,0,0,0,21.62,15.92h0L307.32,333l1.23-2C299,326,281.31,319.89,266.56,315.69Z" style="opacity:0.2"></path><path d="M131.89,200.63l.13,9.68a.8.8,0,0,1-.71.84l-7.93,1.08a1.85,1.85,0,0,1-1.91-1.83c0-4.26.23-6.31.16-11.69,0-3.31-.41-5.31-.47-9.89s4.33-4.64,4.75-2.72c1.91,8.61,2.91,9.71,5.3,12.68A3.08,3.08,0,0,1,131.89,200.63Z" style="fill:#263238"></path><path d="M356.31,300.73c-2.11-1.28-4.45-2.68-6.74-3.93s-4.62-2.55-7-3.74-4.74-2.3-7.12-3.41-4.82-2.11-7.26-3l-1.42-.55a1.72,1.72,0,0,0-.61-.1,5.3,5.3,0,0,0-2.21.66,23.53,23.53,0,0,0-5.45,4.24,66.78,66.78,0,0,0-5.14,5.77c-1.66,2-3.25,4.2-4.74,6.32l-.07.09a2.42,2.42,0,0,1-4.2-2.36,66,66,0,0,1,8.6-14.77,29,29,0,0,1,6.83-6.43,13.58,13.58,0,0,1,5.41-2.09,10.58,10.58,0,0,1,3.45.1,8.48,8.48,0,0,1,.87.21l.58.17,1,.32a117.12,117.12,0,0,1,15.72,6.18c2.53,1.22,5.05,2.45,7.5,3.81s4.84,2.73,7.32,4.38a4.88,4.88,0,0,1-5.23,8.24Z" style="fill:#7f3e3b"></path><path d="M354.32,291.88c-7.84,1.91-20.83,8.12-44.76,15.13l8,38.29c14.47-3.65,23.7-5.95,52.7-5.55a5.1,5.1,0,0,0,5.16-5.36,104.55,104.55,0,0,0-1.1-11.11,121.8,121.8,0,0,0-3.6-17.23c-.67-2.19-1.46-4.46-2.23-6.55A12.08,12.08,0,0,0,354.32,291.88Z" style="fill:#7f3e3b"></path><path d="M367.7,335.89c-2.56.12-8.2,2.05-11.1,3.89,2.74-.06,5.69-.08,8.92-.08Z" style="opacity:0.2"></path><path d="M394.62,275.11c-4.3-3-11.2.58-13.63,9.59-2.1,7.8,3.14,23.14,3.14,23.14a79.91,79.91,0,0,0,14.57,2.08c8.34.45,24.1-2.72,19.79-16.72C421.14,279.84,404.07,265.06,394.62,275.11Z" style="fill:#263238"></path><path d="M352.36,312.89c3.55-1.09,9.39,2.18,11.1,5.2C361.45,316.15,355.48,313.23,352.36,312.89Z" style="opacity:0.2"></path><path d="M390.69,309.69c-5.62,1.35-15.51,4.67-17.3,9.85,0,0-5.87,1-10.25-8.59-4.82-10.52,2.92-7.42,2.92-7.42,4,5.11,8.19,3,11.74.18Z" style="fill:#7f3e3b"></path><path d="M385.43,307.26l-7.63-3.55a17.86,17.86,0,0,1-2.61,1.8c-.66,2.47,4.25,4.62,6.66,3.8A14.42,14.42,0,0,0,385.43,307.26Z" style="opacity:0.2"></path><path d="M403.74,296.57c-5.14,8-7.15,11.43-13.7,13.32-9.84,2.84-18.48-5.23-15.82-14.56,2.4-8.4,10.41-20,20.33-18.73A12.92,12.92,0,0,1,403.74,296.57Z" style="fill:#7f3e3b"></path><path d="M388.54,273.49c-6.44,7.1,12.12,13.15,7.43,29.33,7-1.92,19.9-12.93,9.44-24.39C401.06,273.67,392.87,268.71,388.54,273.49Z" style="fill:#263238"></path><path d="M114.39,402.69c-1.5-.76-4.86-.58-8.27,1.69s-13.36,1.84-14.54,6.32c-1.32,5,7.44,6.36,11.22,5,2.15-.76,5.25-3.23,10-3.57C115.49,412,118.73,404.9,114.39,402.69Z" style="fill:#263238"></path><path d="M109.77,407.8h0a3.8,3.8,0,0,1,2.2-4.4l17.42-8,3.23,10.59-18.21,4.64A3.8,3.8,0,0,1,109.77,407.8Z" style="fill:#7f3e3b"></path><path d="M311.75,317.51S242.4,345.16,215,356.43c-28.49,11.71-85.62,38.91-85.62,38.91L132.63,406s64.41-18.33,89.11-30.29c46.92-11.12,86-16.18,95.82-30.38Z" style="fill:#263238"></path><path d="M389.37,291.36c-.38.67-1,1-1.48.77s-.49-1-.11-1.67,1-1,1.48-.76S389.75,290.69,389.37,291.36Z" style="fill:#263238"></path><path d="M381.79,287.09c-.38.67-1,1-1.48.76s-.49-1-.11-1.66,1-1,1.48-.77S382.16,286.42,381.79,287.09Z" style="fill:#263238"></path><path d="M381.85,285.57l-1.35-1.37S380.62,285.92,381.85,285.57Z" style="fill:#263238"></path><path d="M383.44,289.61a20.51,20.51,0,0,1-4.8,2.94,3.32,3.32,0,0,0,2.14,1.79Z" style="fill:#630f0f"></path><path d="M383,299a6.31,6.31,0,0,1-1-.48.22.22,0,1,1,.22-.39,6.08,6.08,0,0,0,5.5.36.23.23,0,0,1,.31.09.23.23,0,0,1-.1.31A6.35,6.35,0,0,1,383,299Z" style="fill:#263238"></path><path d="M402.31,304.5a6.91,6.91,0,0,1-5,1.6c-2.42-.22-2.76-2.59-1.37-4.42,1.26-1.65,4-3.52,6.11-2.38A3.1,3.1,0,0,1,402.31,304.5Z" style="fill:#7f3e3b"></path><path d="M393.28,291.53a.47.47,0,0,1-.29-.45c.1-2.09-2-3.75-2-3.77a.45.45,0,0,1,.55-.71c.1.08,2.51,2,2.39,4.52a.46.46,0,0,1-.47.44Z" style="fill:#263238"></path><path d="M381.48,282.3a.45.45,0,0,1,.08-.87,4.5,4.5,0,0,1,4,1.13.45.45,0,1,1-.66.62h0a3.59,3.59,0,0,0-3.15-.86A.39.39,0,0,1,381.48,282.3Z" style="fill:#263238"></path><path d="M375.56,335.84c-1.44,6-3,12.07-4.44,18.09L369,363l-1,4.47c-.32,1.47-.61,3-.84,4.3a10.67,10.67,0,0,0-.08,1.65c0,.67,0,1.37.08,2.09.08,1.45.23,3,.4,4.45.35,3,.76,6.07,1.22,9.12l2.82,18.43v0a2.43,2.43,0,0,1-4.7,1.14c-2-6-3.78-12-5.33-18.15-.75-3.07-1.49-6.15-2.09-9.32-.3-1.58-.58-3.18-.81-4.84-.11-.83-.21-1.68-.27-2.58a20.32,20.32,0,0,1,0-3c.18-1.75.41-3.34.66-4.94s.54-3.16.82-4.72q.87-4.67,1.88-9.27c1.33-6.16,2.76-12.25,4.37-18.33a4.88,4.88,0,0,1,9.47,2.38Z" style="fill:#7f3e3b"></path><path d="M389.43,289.84l-1.35-1.37S388.2,290.19,389.43,289.84Z" style="fill:#263238"></path><path d="M370.09,405.71h8.77l-4.93,5.42s-6.37.59-7.16-3.3Z" style="fill:#7f3e3b"></path><polygon points="386.99 411.58 382.23 413.04 373.93 411.13 378.86 405.71 386.99 411.58" style="fill:#7f3e3b"></polygon><path d="M308.72,301.81l2.88,5.12-9.24-.58s-.7-4.82,2.71-6.32Z" style="fill:#7f3e3b"></path><polygon points="308.34 312.99 301.38 310.95 302.36 306.35 311.6 306.93 308.34 312.99" style="fill:#7f3e3b"></polygon><path d="M375.25,328.24c.89,2.82.18,4.19.18,4.19-13.09-1.32-25.78.41-27.48,8.12-5.46.52-12.59.5-19.11,2.34a1.4,1.4,0,0,1-1.76-1.19c-.94-8-4.1-27.54-8.08-37.59a1.41,1.41,0,0,1,.93-1.87c37.56-10.61,47.05-6.6,47.05-6.6a11.18,11.18,0,0,1,1.78,3.56c-5.2-.2-17.82-1.15-14.27,15.08S375.25,328.24,375.25,328.24Z" style="fill:#407BFF"></path><path d="M362.53,295c-2.26-.47-22.62-8.14-26.22,3.48C333.36,308,362.53,295,362.53,295Z" style="fill:#407BFF"></path></g></svg>