<?xml version="1.0" encoding="iso-8859-1"?>
<!-- Generator: Adobe Illustrator 19.0.0, SVG Export Plug-In . SVG Version: 6.00 Build 0)  -->
<svg version="1.1" id="Capa_1" xmlns="http://www.w3.org/2000/svg" xmlns:xlink="http://www.w3.org/1999/xlink" x="0px" y="0px"
	 viewBox="0 0 511.999 511.999" style="enable-background:new 0 0 511.999 511.999;" xml:space="preserve">
<path style="fill:#FF8546;" d="M270.889,449.922H19.357C8.667,449.922,0,458.588,0,469.279c0,10.69,8.667,19.357,19.357,19.357
	h251.532c10.69,0,19.357-8.667,19.357-19.357C290.245,458.588,281.579,449.922,270.889,449.922z"/>
<path style="fill:#F0A479;" d="M392.137,358.234c9.285,17.069,30.646,23.377,47.713,14.092l16.624-9.043
	c17.066-9.285,23.375-30.646,14.089-47.715l-9.044-16.622c-9.284-17.068-30.646-23.377-47.713-14.092l-16.624,9.045
	c-17.066,9.285-23.374,30.646-14.089,47.713L392.137,358.234z"/>
<path style="fill:#74D6D0;" d="M163.27,99.114l18.688,2.969c19.189,3.049,37.217-10.033,40.265-29.221l2.971-18.69
	c3.048-19.188-10.035-37.214-29.224-40.264l-18.688-2.971c-19.188-3.048-37.214,10.035-40.264,29.224l-2.969,18.688
	C130.999,78.038,144.082,96.066,163.27,99.114z"/>
<path style="fill:#F5CDB3;" d="M483.665,444.797l-85.413-0.07l-56.309-100.27c-0.644-1.147-1.363-2.227-2.133-3.248
	c-8.078-11.486-21.424-19.001-36.534-19.001H45.144c-24.654,0-44.642,19.987-44.642,44.641c0,24.654,19.987,44.642,44.642,44.642
	l269.406-0.008l42.422,75.545c5.567,9.912,16.202,15.178,26.835,14.39l99.823,0.083c15.657,0.009,28.359-12.677,28.368-28.335
	C512.01,457.512,499.324,444.809,483.665,444.797z"/>
<path style="fill:#E03905;" d="M270.889,449.922H141.42v38.714h129.469c10.69,0,19.357-8.667,19.357-19.357
	C290.245,458.588,281.579,449.922,270.889,449.922z"/>
<path style="fill:#F0A479;" d="M483.665,444.797l-85.413-0.07l-56.309-100.27c-0.644-1.147-1.363-2.227-2.133-3.248
	c-8.078-11.486-21.424-19.001-36.534-19.001H141.42v89.279l173.13-0.005l42.422,75.545c5.566,9.912,16.202,15.178,26.835,14.39
	l99.823,0.083c15.657,0.009,28.359-12.677,28.368-28.335C512.01,457.512,499.325,444.809,483.665,444.797z"/>
<path style="fill:#74D6D0;" d="M198.49,222.229l75.421,70.339c11.472,10.657,29.411,9.996,40.069-1.478
	c10.657-11.471,9.996-29.409-1.476-40.069L192.211,138.999c-0.75-0.697-1.53-1.339-2.332-1.94
	c-5.963-4.962-13.293-8.437-21.511-9.743c-24.348-3.869-47.224,12.733-51.093,37.081L97.191,293.556h90.346L198.49,222.229z"/>
<path style="fill:#F0A479;" d="M392.137,358.234c9.285,17.069,30.646,23.377,47.713,14.092l16.624-9.043
	c17.066-9.285,23.375-30.646,14.089-47.715l-9.044-16.622c-9.284-17.068-30.646-23.377-47.713-14.092l-16.624,9.045
	c-17.066,9.285-23.374,30.646-14.089,47.713L392.137,358.234z"/>
<g>
</g>
<g>
</g>
<g>
</g>
<g>
</g>
<g>
</g>
<g>
</g>
<g>
</g>
<g>
</g>
<g>
</g>
<g>
</g>
<g>
</g>
<g>
</g>
<g>
</g>
<g>
</g>
<g>
</g>
</svg>
